<mxfile host="app.diagrams.net" modified="2021-02-06T03:37:05.387Z" agent="5.0 (Windows NT 6.1; WOW64) AppleWebKit/537.36 (KHTML, like Gecko) Chrome/86.0.4240.198 Safari/537.36" etag="YhUpZDwKzZ6Pq7Uj23C4" version="14.2.9" type="github">
  <diagram id="gddmTk9zShuUmkAov9sJ" name="Page-1">
    <mxGraphModel dx="840" dy="433" grid="1" gridSize="10" guides="1" tooltips="1" connect="1" arrows="1" fold="1" page="1" pageScale="1" pageWidth="827" pageHeight="1169" math="0" shadow="0">
      <root>
        <mxCell id="0" />
        <mxCell id="1" parent="0" />
        <mxCell id="VhanhQAlaVrq_fSqDAiD-1" value="" style="rounded=0;whiteSpace=wrap;html=1;" vertex="1" parent="1">
          <mxGeometry x="340" y="150" width="120" height="60" as="geometry" />
        </mxCell>
        <mxCell id="VhanhQAlaVrq_fSqDAiD-2" value="" style="endArrow=classic;html=1;" edge="1" parent="1">
          <mxGeometry width="50" height="50" relative="1" as="geometry">
            <mxPoint x="139.5" y="80" as="sourcePoint" />
            <mxPoint x="139.5" y="170" as="targetPoint" />
          </mxGeometry>
        </mxCell>
        <mxCell id="VhanhQAlaVrq_fSqDAiD-3" value="" style="rounded=0;whiteSpace=wrap;html=1;" vertex="1" parent="1">
          <mxGeometry x="360" y="260" width="120" height="60" as="geometry" />
        </mxCell>
        <mxCell id="VhanhQAlaVrq_fSqDAiD-4" value="&lt;span&gt;OTF&lt;/span&gt;" style="rounded=1;whiteSpace=wrap;html=1;" vertex="1" parent="1">
          <mxGeometry x="80" y="20" width="120" height="60" as="geometry" />
        </mxCell>
        <mxCell id="VhanhQAlaVrq_fSqDAiD-5" value=".14m" style="rounded=1;whiteSpace=wrap;html=1;" vertex="1" parent="1">
          <mxGeometry x="80" y="170" width="120" height="60" as="geometry" />
        </mxCell>
      </root>
    </mxGraphModel>
  </diagram>
</mxfile>
